<svg width="19" height="20" fill="none" xmlns="http://www.w3.org/2000/svg"><path fill-rule="evenodd" clip-rule="evenodd" d="M2.653 4.167c.032.038.089.096.191.173.274.205.733.433 1.39.641 1.303.414 3.165.686 5.266.686s3.963-.272 5.266-.686c.657-.208 1.116-.436 1.39-.64.102-.078.16-.136.191-.174a1.112 1.112 0 0 0-.191-.174c-.274-.205-.733-.432-1.39-.64-1.303-.415-3.165-.686-5.266-.686s-3.963.271-5.266.685c-.657.209-1.116.436-1.39.641-.102.077-.16.135-.191.174Zm13.722 2.34c-.313.142-.65.268-1.004.38-1.547.492-3.623.78-5.871.78s-4.324-.288-5.871-.78a9.05 9.05 0 0 1-1.004-.38v3.457c.017.029.07.101.218.212.27.205.727.431 1.382.64 1.299.413 3.16.684 5.275.684s3.976-.271 5.275-.684c.655-.209 1.111-.435 1.382-.64.147-.11.2-.183.218-.212V6.507Zm0 5.837c-.31.141-.644.267-.994.378-1.545.491-3.62.778-5.881.778-2.26 0-4.336-.287-5.881-.778a8.977 8.977 0 0 1-.994-.378v3.453c.017.03.07.102.218.212.27.205.727.432 1.382.64 1.299.413 3.16.684 5.275.684s3.976-.27 5.275-.684c.655-.208 1.111-.435 1.382-.64.147-.11.2-.183.218-.212v-3.453Zm2 3.49c0 .801-.507 1.39-1.013 1.772-.522.394-1.214.705-1.98.95-1.546.49-3.622.777-5.882.777s-4.336-.287-5.881-.778c-.767-.244-1.46-.555-1.981-.95-.506-.381-1.013-.97-1.013-1.772V4.167c0-.805.512-1.393 1.019-1.773C2.167 2 2.86 1.69 3.629 1.446 5.176.955 7.252.666 9.5.666s4.324.289 5.871.78c.768.244 1.462.555 1.985.948.507.38 1.019.968 1.019 1.773v11.666Z" fill="#E04E39"/></svg>