<svg width="55" height="64" fill="none" xmlns="http://www.w3.org/2000/svg"><g clip-path="url(#a)" fill="#E04E39"><path d="M21.569 14.563c-.687-.099-.72-.132-.392-.165.62-.099 2.058.033 3.071.264 2.353.562 4.477 2.015 6.732 4.558l.589.693.85-.132c3.627-.594 7.352-.132 10.457 1.321.85.396 2.19 1.189 2.353 1.387.065.066.163.495.229.925.228 1.552.13 2.708-.36 3.6-.261.495-.261.627-.098 1.056.13.33.523.561.882.561.785 0 1.602-1.254 1.994-3.005l.163-.693.294.33c1.667 1.882 2.974 4.491 3.17 6.34l.066.496-.294-.43c-.49-.759-.948-1.254-1.57-1.684-1.11-.76-2.287-.99-5.391-1.155-2.81-.165-4.412-.397-5.98-.925-2.68-.892-4.053-2.047-7.223-6.308-1.405-1.882-2.288-2.906-3.17-3.764-1.928-1.883-3.856-2.873-6.372-3.27Z"/><path d="M45.915 18.757c.065-1.255.229-2.08.588-2.84.131-.297.262-.561.294-.561.033 0-.032.231-.13.495-.262.727-.294 1.75-.131 2.906.229 1.486.327 1.685 1.895 3.303.72.76 1.569 1.717 1.896 2.113l.555.727-.555-.529c-.686-.66-2.255-1.915-2.615-2.08-.228-.132-.261-.132-.424.033-.131.132-.164.33-.164 1.288-.032 1.486-.229 2.41-.719 3.368-.261.496-.294.397-.065-.165.163-.43.196-.627.196-2.047 0-2.873-.327-3.567-2.32-4.723-.49-.297-1.34-.726-1.83-.957-.523-.232-.915-.43-.883-.43.066-.066 1.994.496 2.745.826 1.144.462 1.34.495 1.47.462.099-.099.164-.363.197-1.189ZM22.909 23.678c-1.373-1.915-2.255-4.887-2.06-7.1l.066-.694.327.067c.588.099 1.601.495 2.091.792 1.308.793 1.896 1.883 2.451 4.59.164.793.392 1.718.49 2.015.164.495.785 1.651 1.308 2.378.36.528.13.792-.687.726-1.241-.132-2.908-1.288-3.986-2.774ZM44.248 38.043c-6.47-2.642-8.758-4.92-8.758-8.784 0-.561.033-1.024.033-1.024.032 0 .261.198.555.43 1.308 1.056 2.778 1.519 6.863 2.113 2.386.363 3.758.628 5 1.057 3.954 1.32 6.405 4.029 6.994 7.694.163 1.057.065 3.072-.197 4.128-.228.826-.882 2.345-1.045 2.378-.033 0-.098-.165-.098-.43-.066-1.386-.752-2.707-1.896-3.73-1.372-1.19-3.137-2.081-7.45-3.832ZM39.673 39.133a7.898 7.898 0 0 0-.327-1.387l-.163-.495.294.363c.425.495.752 1.09 1.046 1.915.229.628.229.826.229 1.85 0 .99-.033 1.222-.23 1.783-.326.892-.718 1.52-1.372 2.213-1.176 1.221-2.712 1.882-4.902 2.18-.392.032-1.503.131-2.483.197-2.451.132-4.085.397-5.556.925-.196.066-.392.132-.425.099-.065-.066.948-.66 1.765-1.057 1.144-.561 2.32-.858 4.902-1.32 1.274-.199 2.582-.463 2.908-.595 3.236-1.024 4.837-3.567 4.314-6.67Z"/><path d="M42.647 44.45c-.85-1.883-1.046-3.666-.588-5.35.065-.165.13-.33.196-.33.065 0 .261.099.457.23.393.265 1.21.727 3.301 1.883 2.647 1.453 4.15 2.576 5.196 3.864.915 1.123 1.47 2.41 1.732 3.996.164.892.066 3.038-.163 3.93-.72 2.807-2.353 5.052-4.739 6.34-.36.199-.653.33-.686.33-.033 0 .098-.33.294-.726.784-1.684.882-3.302.294-5.119-.36-1.122-1.111-2.476-2.614-4.755-1.798-2.642-2.222-3.336-2.68-4.293ZM18.3 54.555c2.419-2.047 5.393-3.5 8.138-3.963 1.176-.198 3.137-.132 4.216.165 1.732.463 3.3 1.453 4.117 2.675.785 1.19 1.144 2.213 1.504 4.491.13.892.294 1.817.326 2.015.262 1.189.785 2.113 1.438 2.609 1.013.76 2.778.792 4.51.132.294-.1.556-.198.556-.165.065.066-.817.66-1.406.957-.817.43-1.47.562-2.353.562-1.568 0-2.908-.826-3.986-2.477-.23-.33-.687-1.288-1.079-2.18-1.144-2.674-1.732-3.467-3.072-4.359-1.176-.76-2.68-.924-3.823-.363-1.504.727-1.896 2.675-.85 3.864.425.495 1.21.892 1.863.99 1.209.166 2.255-.792 2.255-2.014 0-.792-.294-1.255-1.079-1.618-1.046-.462-2.19.066-2.157 1.09 0 .43.196.693.621.892.262.132.262.132.066.099-.948-.199-1.177-1.387-.425-2.147.915-.925 2.843-.528 3.497.76.26.528.294 1.585.065 2.245-.556 1.453-2.124 2.213-3.726 1.784-1.078-.298-1.536-.595-2.843-1.949-2.287-2.378-3.17-2.84-6.438-3.335l-.62-.1.686-.66Z"/><path fill-rule="evenodd" clip-rule="evenodd" d="M1.111 1.42c7.614 9.346 19.346 23.876 19.935 24.669.49.66.294 1.288-.523 1.75-.458.264-1.405.528-1.863.528-.523 0-1.144-.264-1.569-.693-.294-.297-1.568-2.18-4.444-6.704-2.19-3.467-4.052-6.34-4.085-6.373-.13-.067-.13-.067 3.856 7.133 2.517 4.524 3.334 6.142 3.334 6.34 0 .43-.131.66-.654 1.255-.882.99-1.275 2.114-1.569 4.458-.326 2.61-1.209 4.459-3.725 7.596-1.47 1.85-1.7 2.18-2.059 2.939-.458.925-.588 1.453-.654 2.642-.065 1.255.066 2.047.425 3.236.327 1.057.686 1.75 1.569 3.104.751 1.19 1.209 2.08 1.209 2.411 0 .264.065.264 1.242 0 2.81-.66 5.13-1.783 6.405-3.17.784-.859.98-1.321.98-2.51 0-.76-.032-.925-.228-1.387-.327-.727-.948-1.321-2.288-2.246-1.765-1.222-2.516-2.212-2.712-3.533-.164-1.123.032-1.883 1.013-3.963 1.013-2.147 1.274-3.038 1.438-5.218.098-1.387.261-1.948.653-2.377.425-.463.785-.628 1.798-.76 1.666-.231 2.745-.66 3.594-1.486.752-.694 1.079-1.387 1.111-2.41l.033-.76-.425-.463C21.372 23.645.098 0 0 0-.033 0 .49.627 1.11 1.42Zm10.033 46.96c.36-.628.163-1.42-.425-1.817-.556-.363-1.405-.198-1.405.298 0 .132.065.264.261.33.294.165.327.33.098.693-.229.364-.229.694.065.925.458.363 1.079.165 1.406-.43ZM24.38 31.01c-.785.23-1.537 1.089-1.766 1.948-.13.528-.065 1.486.164 1.783.36.462.686.594 1.601.594 1.797 0 3.333-.792 3.497-1.75.163-.793-.523-1.882-1.47-2.378-.491-.264-1.504-.363-2.027-.198Zm2.09 1.65c.262-.396.164-.825-.326-1.122-.883-.562-2.222-.1-2.222.76 0 .428.686.89 1.34.89.424 0 1.012-.263 1.209-.528Z"/></g><defs><clipPath id="a"><path fill="#fff" d="M0 0h55v64H0z"/></clipPath></defs></svg>