<svg width="20" height="18" fill="none" xmlns="http://www.w3.org/2000/svg"><path d="M9.987 17.777c-3.171 0-6.047-1.969-7.23-4.957-.101-.249-.208-.383-.498-.44C1.04 12.138.208 11.068.22 9.812a2.562 2.562 0 0 1 2.115-2.485c.22-.038.32-.14.39-.337a6.86 6.86 0 0 1 .793-1.542c.075-.109.094-.191.031-.325-.805-1.561-.648-3.052.372-4.46.082-.115.182-.223.258-.338.1-.16.182-.127.283.006.384.53.8 1.026 1.321 1.421.39.293.819.504 1.284.644.139.038.27.032.416-.013 2.825-.905 5.387-.382 7.659 1.536.988.834 1.686 1.886 2.14 3.096.081.217.207.28.408.319 1.24.236 2.102 1.306 2.09 2.574-.02 1.242-.944 2.326-2.159 2.504-.17.025-.258.09-.321.248-.887 2.269-2.46 3.823-4.726 4.665-.83.312-1.7.452-2.587.452Zm.284-1.02c.534-.006 1.327-.133 2.089-.433 2.108-.828 3.486-2.357 4.166-4.536.126-.395.126-.402.541-.376.529.038.982-.128 1.328-.536.415-.49.485-1.172.201-1.72-.308-.592-.9-.917-1.617-.822-.371.045-.352-.032-.428-.312-.314-1.128-.856-2.135-1.68-2.944-2.077-2.045-4.512-2.568-7.262-1.65a.905.905 0 0 1-.504.038C6.111 3.25 5.274 2.76 4.563 2.04c-.195-.198-.202-.198-.302.064-.39 1.076-.24 2.064.459 2.962.132.166.145.274.006.446a6.693 6.693 0 0 0-1.296 2.55c-.057.222-.145.299-.39.267-1.215-.153-2.102.873-1.762 2.007.214.713.824 1.096 1.692 1.064.416-.013.347-.09.472.338.926 3.033 3.5 5.008 6.829 5.02Z" fill="#E04E39"/><path d="M9.987 18a7.902 7.902 0 0 1-4.48-1.395 8.051 8.051 0 0 1-2.952-3.702c-.075-.192-.132-.262-.333-.3C.9 12.342-.012 11.195 0 9.813c.013-1.326.982-2.46 2.297-2.702.132-.026.176-.058.22-.198a7.346 7.346 0 0 1 .819-1.593.283.283 0 0 0 .031-.057s0-.013-.013-.038c-.83-1.606-.698-3.186.39-4.683A15.968 15.968 0 0 0 4.003.21c.026-.052.126-.205.303-.211.176 0 .29.147.333.204.447.618.837 1.045 1.278 1.376.358.274.767.478 1.214.605a.437.437 0 0 0 .284-.012c2.888-.924 5.531-.389 7.866 1.58.982.828 1.724 1.899 2.203 3.192.044.115.088.147.245.179 1.353.254 2.284 1.408 2.272 2.797-.013 1.357-1.02 2.523-2.341 2.72-.1.013-.113.032-.151.115-.906 2.32-2.536 3.931-4.852 4.792A7.903 7.903 0 0 1 9.987 18Zm0-.446c.9 0 1.744-.147 2.511-.433 2.197-.816 3.739-2.339 4.594-4.537a.565.565 0 0 1 .491-.389c1.108-.165 1.951-1.146 1.964-2.28.012-1.173-.774-2.142-1.907-2.358-.214-.038-.453-.128-.573-.459-.453-1.217-1.151-2.224-2.076-3.007-2.203-1.86-4.708-2.364-7.445-1.491a.876.876 0 0 1-.542.012 4.292 4.292 0 0 1-1.353-.675c-.459-.35-.874-.79-1.334-1.42a1.589 1.589 0 0 1-.113.152c-.038.045-.07.09-.1.134-.995 1.37-1.115 2.752-.353 4.224a.507.507 0 0 1-.044.555 6.843 6.843 0 0 0-.768 1.49c-.1.287-.27.427-.56.485A2.338 2.338 0 0 0 .441 9.819c-.013 1.16.755 2.128 1.862 2.345.39.076.548.286.661.573 1.14 2.88 3.959 4.817 7.023 4.817Zm.284-.573c-3.38-.013-6.073-1.988-7.03-5.168-.012-.045-.025-.09-.038-.121-.006-.026-.012-.045-.019-.07H3.16c-.044.006-.1.006-.176.006-.97.032-1.668-.414-1.913-1.223-.183-.599-.07-1.204.315-1.663.396-.478 1.025-.714 1.686-.63.088.012.113 0 .113 0s.02-.02.038-.103a6.778 6.778 0 0 1 1.34-2.631c.045-.058.051-.077.051-.077s-.006-.025-.057-.095c-.748-.956-.912-2.027-.497-3.18.057-.16.114-.312.27-.344.158-.032.265.077.391.198.705.72 1.504 1.166 2.43 1.363.125.026.25.02.39-.032 2.85-.955 5.368-.382 7.482 1.702.818.802 1.397 1.828 1.737 3.045a.318.318 0 0 0 .025.083c.006.026.013.057.019.077.025 0 .07 0 .145-.013.793-.102 1.479.255 1.837.943a1.769 1.769 0 0 1-.226 1.969c-.378.452-.888.656-1.51.611a1.5 1.5 0 0 0-.233-.006c-.02.038-.05.127-.076.223v.006c-.705 2.256-2.152 3.83-4.298 4.677a6.5 6.5 0 0 1-2.171.453ZM3.216 11.17c.258 0 .327.101.409.388.013.032.019.077.038.121.9 2.982 3.436 4.843 6.608 4.85a6.005 6.005 0 0 0 2.013-.421c2.014-.797 3.374-2.275 4.04-4.397v-.006c.152-.49.252-.56.762-.523.478.032.856-.114 1.146-.459a1.32 1.32 0 0 0 .17-1.471c-.277-.523-.78-.778-1.398-.701-.447.057-.566-.083-.648-.395l-.019-.077c-.314-1.14-.862-2.096-1.623-2.848-1.983-1.956-4.349-2.491-7.036-1.6-.22.071-.416.09-.623.045-.982-.21-1.863-.694-2.612-1.44-.34.988-.195 1.867.447 2.696.138.172.258.414.006.726a6.401 6.401 0 0 0-1.252 2.466c-.088.344-.283.478-.63.433-.522-.064-.994.108-1.296.478-.283.338-.365.796-.226 1.242.182.612.71.937 1.479.912.062 0 .113-.007.157-.007a.485.485 0 0 1 .088-.012Z" fill="#E04E39"/><path d="M9.986 14.394c-1.422-.051-2.548-.657-3.335-1.874-.208-.325-.176-.618.088-.796.258-.172.548-.09.755.236.604.923 1.454 1.414 2.555 1.401.976-.012 1.75-.446 2.335-1.236.057-.076.1-.159.157-.235.19-.268.473-.338.718-.179.239.16.302.44.138.714-.46.777-1.101 1.344-1.932 1.675-.472.192-.963.3-1.479.294Z" fill="#E04E39"/><path d="M10.062 14.617H9.974c-1.516-.058-2.7-.72-3.511-1.976-.277-.427-.214-.86.15-1.102.366-.242.781-.127 1.058.3.566.866 1.347 1.3 2.328 1.3h.038c.875-.013 1.605-.396 2.159-1.147.025-.039.05-.077.082-.122l.075-.114c.258-.363.673-.459 1.013-.236.34.23.422.644.208 1.013a4.137 4.137 0 0 1-2.04 1.771c-.503.21-.987.313-1.472.313Zm-.069-.446c.447.012.9-.083 1.385-.274a3.673 3.673 0 0 0 1.825-1.587c.1-.166.075-.319-.07-.408-.201-.133-.358.039-.415.121-.019.032-.044.064-.063.096a2 2 0 0 1-.1.146c-.636.86-1.48 1.307-2.499 1.313-1.158.013-2.077-.49-2.737-1.504-.145-.216-.296-.274-.447-.172-.057.039-.233.16-.025.485.73 1.146 1.762 1.726 3.146 1.784ZM7.646 9.59a.797.797 0 0 1-.78.821c-.429.007-.794-.363-.8-.802a.804.804 0 0 1 .793-.81.803.803 0 0 1 .787.79Z" fill="#E04E39"/><path d="M6.853 10.634a.966.966 0 0 1-.692-.293 1.067 1.067 0 0 1-.315-.732c0-.274.101-.536.296-.733a.99.99 0 0 1 .711-.3h.007c.547 0 1 .46 1.006 1.013a1.02 1.02 0 0 1-.994 1.045h-.019Zm.007-1.612a.554.554 0 0 0-.397.172.572.572 0 0 0-.17.415c0 .152.07.305.176.42a.559.559 0 0 0 .397.166.573.573 0 0 0 .56-.6.576.576 0 0 0-.566-.573ZM13.927 9.602c0 .44-.365.816-.793.81a.8.8 0 0 1-.787-.816c0-.427.352-.79.78-.797.428-.006.793.363.8.803Z" fill="#E04E39"/><path d="M13.14 10.634h-.006a1.017 1.017 0 0 1-1.007-1.038c0-.555.446-1.013.994-1.02h.013c.264 0 .51.102.704.293.196.198.303.453.309.727 0 .274-.107.541-.302.732a.992.992 0 0 1-.705.306Zm-.006-1.612h-.007a.583.583 0 0 0 .007 1.166.55.55 0 0 0 .396-.172.604.604 0 0 0 .176-.42c0-.153-.063-.3-.176-.408a.575.575 0 0 0-.396-.166Z" fill="#E04E39"/></svg>