<svg width="20" height="20" fill="none" xmlns="http://www.w3.org/2000/svg"><path fill-rule="evenodd" clip-rule="evenodd" d="M2 2v16h16V2H2ZM1 0a1 1 0 0 0-1 1v18a1 1 0 0 0 1 1h18a1 1 0 0 0 1-1V1a1 1 0 0 0-1-1H1Z" fill="#E04E39"/><path fill-rule="evenodd" clip-rule="evenodd" d="M19 8H1V6h18v2ZM13.293 10.293a1 1 0 0 1 1.414 0l2 2a1 1 0 0 1 0 1.414l-2 2a1 1 0 0 1-1.414-1.414L14.586 13l-1.293-1.293a1 1 0 0 1 0-1.414ZM6.707 10.293a1 1 0 0 0-1.414 0l-2 2a1 1 0 0 0 0 1.414l2 2a1 1 0 0 0 1.414-1.414L5.414 13l1.293-1.293a1 1 0 0 0 0-1.414ZM10.81 10.035a.952.952 0 0 1 .712 1.188l-1.091 4a1.05 1.05 0 0 1-1.238.742.952.952 0 0 1-.712-1.188l1.091-4a1.05 1.05 0 0 1 1.238-.742Z" fill="#E04E39"/><path d="M5 4a1 1 0 1 1-2 0 1 1 0 0 1 2 0ZM8 4a1 1 0 1 1-2 0 1 1 0 0 1 2 0ZM11 4a1 1 0 1 1-2 0 1 1 0 0 1 2 0Z" fill="#E04E39"/></svg>