<svg width="22" height="22" fill="none" xmlns="http://www.w3.org/2000/svg"><path fill-rule="evenodd" clip-rule="evenodd" d="M3.222 2C2.547 2 2 2.547 2 3.222v15.556C2 19.453 2.547 20 3.222 20h15.556c.675 0 1.222-.547 1.222-1.222V3.222C20 2.547 19.453 2 18.778 2H3.222ZM0 3.222A3.222 3.222 0 0 1 3.222 0h15.556A3.222 3.222 0 0 1 22 3.222v15.556A3.222 3.222 0 0 1 18.778 22H3.222A3.222 3.222 0 0 1 0 18.778V3.222Zm4.444 2.222a1 1 0 0 1 1-1h3.334a1 1 0 0 1 1 1v10a1 1 0 0 1-1 1H5.444a1 1 0 0 1-1-1v-10Zm2 1v8h1.334v-8H6.444Zm5.778-1a1 1 0 0 1 1-1h3.334a1 1 0 0 1 1 1V11a1 1 0 0 1-1 1h-3.334a1 1 0 0 1-1-1V5.444Zm2 1V10h1.334V6.444h-1.334Z" fill="#E04E39"/></svg>